<?xml version="1.0"?>
<svg version="1.1" xmlns="http://www.w3.org/2000/svg" width="355" height="103" style=""><path fill="#209cee" d="M28.19140625,78.3125q-11.21484375,0-11.21484375-12.310546875q0-6.123046875,3.05078125-9.3564453125t8.744140625-3.2333984375q4.16796875,0,7.4765625,1.6328125l-1.93359375,5.0703125q-1.546875-0.623046875-2.87890625-1.0205078125t-2.6640625-0.3974609375q-5.11328125,0-5.11328125,7.26171875q0,7.046875,5.11328125,7.046875q1.890625,0,3.501953125-0.5048828125t3.22265625-1.5791015625l0,5.607421875q-1.58984375,1.009765625-3.2119140625,1.396484375t-4.0927734375,0.38671875z M49.30560546875,65.830078125q0,3.56640625,1.1708984375,5.392578125t3.8134765625,1.826171875q2.62109375,0,3.7705078125-1.8154296875t1.1494140625-5.4033203125q0-3.56640625-1.16015625-5.349609375t-3.802734375-1.783203125q-2.62109375,0-3.78125,1.7724609375t-1.16015625,5.3603515625z M65.91302734375,65.830078125q0,5.865234375-3.09375,9.173828125t-8.615234375,3.30859375q-3.458984375,0-6.1015625-1.5146484375t-4.060546875-4.3505859375t-1.41796875-6.6171875q0-5.88671875,3.072265625-9.15234375t8.63671875-3.265625q3.458984375,0,6.1015625,1.50390625t4.060546875,4.318359375t1.41796875,6.595703125z M79.5721484375,65.830078125q0,3.56640625,1.1708984375,5.392578125t3.8134765625,1.826171875q2.62109375,0,3.7705078125-1.8154296875t1.1494140625-5.4033203125q0-3.56640625-1.16015625-5.349609375t-3.802734375-1.783203125q-2.62109375,0-3.78125,1.7724609375t-1.16015625,5.3603515625z M96.1795703125,65.830078125q0,5.865234375-3.09375,9.173828125t-8.615234375,3.30859375q-3.458984375,0-6.1015625-1.5146484375t-4.060546875-4.3505859375t-1.41796875-6.6171875q0-5.88671875,3.072265625-9.15234375t8.63671875-3.265625q3.458984375,0,6.1015625,1.50390625t4.060546875,4.318359375t1.41796875,6.595703125z M110.91291015625,64.8203125l2.857421875-3.65234375l6.724609375-7.3046875l7.390625,0l-9.5390625,10.419921875l10.119140625,13.599609375l-7.5625,0l-6.91796875-9.732421875l-2.814453125,2.255859375l0,7.4765625l-6.552734375,0l0-33.4296875l6.552734375,0l0,14.91015625l-0.34375,5.45703125l0.0859375,0z M131.49,53.86328125l7.17578125,0l4.533203125,13.513671875q0.580078125,1.76171875,0.794921875,4.16796875l0.12890625,0q0.236328125-2.212890625,0.923828125-4.16796875l4.447265625-13.513671875l7.025390625,0l-10.162109375,27.091796875q-1.396484375,3.759765625-3.9853515625,5.62890625t-6.0478515625,1.869140625q-1.697265625,0-3.330078125-0.365234375l0-5.19921875q1.181640625,0.279296875,2.578125,0.279296875q1.740234375,0,3.0400390625-1.0634765625t2.0302734375-3.2119140625l0.38671875-1.181640625z M187.1891015625,78.3125q-11.21484375,0-11.21484375-12.310546875q0-6.123046875,3.05078125-9.3564453125t8.744140625-3.2333984375q4.16796875,0,7.4765625,1.6328125l-1.93359375,5.0703125q-1.546875-0.623046875-2.87890625-1.0205078125t-2.6640625-0.3974609375q-5.11328125,0-5.11328125,7.26171875q0,7.046875,5.11328125,7.046875q1.890625,0,3.501953125-0.5048828125t3.22265625-1.5791015625l0,5.607421875q-1.58984375,1.009765625-3.2119140625,1.396484375t-4.0927734375,0.38671875z M208.30330078125,65.830078125q0,3.56640625,1.1708984375,5.392578125t3.8134765625,1.826171875q2.62109375,0,3.7705078125-1.8154296875t1.1494140625-5.4033203125q0-3.56640625-1.16015625-5.349609375t-3.802734375-1.783203125q-2.62109375,0-3.78125,1.7724609375t-1.16015625,5.3603515625z M224.91072265625,65.830078125q0,5.865234375-3.09375,9.173828125t-8.615234375,3.30859375q-3.458984375,0-6.1015625-1.5146484375t-4.060546875-4.3505859375t-1.41796875-6.6171875q0-5.88671875,3.072265625-9.15234375t8.63671875-3.265625q3.458984375,0,6.1015625,1.50390625t4.060546875,4.318359375t1.41796875,6.595703125z M240.954609375,78.3125q-4.232421875,0-6.6494140625-3.287109375t-2.4169921875-9.109375q0-5.908203125,2.4599609375-9.2060546875t6.7783203125-3.2978515625q4.533203125,0,6.91796875,3.5234375l0.21484375,0q-0.494140625-2.685546875-0.494140625-4.791015625l0-7.69140625l6.57421875,0l0,33.4296875l-5.02734375,0l-1.267578125-3.115234375l-0.279296875,0q-2.234375,3.544921875-6.810546875,3.544921875z M243.2534375,73.091796875q2.513671875,0,3.6845703125-1.4609375t1.2783203125-4.962890625l0-0.708984375q0-3.8671875-1.1923828125-5.54296875t-3.8779296875-1.67578125q-2.19140625,0-3.4052734375,1.8583984375t-1.2138671875,5.4033203125t1.224609375,5.3173828125t3.501953125,1.7724609375z M274.16451171875,58.07421875q-2.083984375,0-3.265625,1.3212890625t-1.353515625,3.7490234375l9.1953125,0q-0.04296875-2.427734375-1.267578125-3.7490234375t-3.30859375-1.3212890625z M275.08833984375,78.3125q-5.80078125,0-9.06640625-3.201171875t-3.265625-9.06640625q0-6.037109375,3.0185546875-9.3349609375t8.3466796875-3.2978515625q5.091796875,0,7.927734375,2.900390625t2.8359375,8.013671875l0,3.1796875l-15.490234375,0q0.107421875,2.79296875,1.654296875,4.361328125t4.33984375,1.568359375q2.169921875,0,4.103515625-0.451171875t4.0390625-1.439453125l0,5.0703125q-1.71875,0.859375-3.673828125,1.2783203125t-4.76953125,0.4189453125z M309.9955078125,70.75q0,3.6953125-2.5673828125,5.62890625t-7.6806640625,1.93359375q-2.62109375,0-4.46875-0.3544921875t-3.458984375-1.0419921875l0-5.4140625q1.826171875,0.859375,4.1142578125,1.439453125t4.0283203125,0.580078125q3.56640625,0,3.56640625-2.0625q0-0.7734375-0.47265625-1.2568359375t-1.6328125-1.095703125t-3.09375-1.4287109375q-2.771484375-1.16015625-4.0712890625-2.1484375t-1.890625-2.2666015625t-0.5908203125-3.1474609375q0-3.201171875,2.4814453125-4.9521484375t7.0361328125-1.7509765625q4.33984375,0,8.443359375,1.890625l-1.9765625,4.7265625q-1.8046875-0.7734375-3.373046875-1.267578125t-3.201171875-0.494140625q-2.900390625,0-2.900390625,1.568359375q0,0.880859375,0.9345703125,1.525390625t4.0927734375,1.912109375q2.814453125,1.138671875,4.125,2.126953125t1.93359375,2.27734375t0.623046875,3.072265625z"/><path fill="#" d=""/></svg>
